<?xml version="1.0"?>
<svg width="864.744" height="221.727" xmlns="http://www.w3.org/2000/svg" xmlns:svg="http://www.w3.org/2000/svg" version="1.1">
 <g class="layer">
  <title>Layer 1</title>
  <g id="svg_1">
   <path d="m848.57,195.28l-18.89,0c-9.62,0 -17.42,-7.8 -17.42,-17.42l0,-129.84c0,-19.25 -15.6,-34.85 -34.85,-34.85l-695.78,0c-18.63,0 -33.79,14.62 -34.77,33l-0.09,0l0,13.89c0,9.62 -7.8,17.42 -17.43,17.42l-17.17,0l0,9.99l17.17,0c9.63,0 17.43,7.8 17.43,17.42l0,66.8c0,19.26 15.6,34.86 34.86,34.86l116.75,0l0.04,0l102.02,-0.01l183.09,0l0,0l178.8,0c0.01,0 0.03,-0.01 0.05,-0.01l186.19,-0.01l0,-11.26l0,0l0,0.02zm-620.45,-17.48l0,-72.9c0,-9.63 7.8,-17.43 17.42,-17.43l78.88,0c9.63,0 17.44,7.8 17.44,17.42l0,72.91c0,9.63 -7.81,17.43 -17.44,17.43l-78.88,0.01c-9.62,0 -17.42,-7.8 -17.42,-17.43l0,-0.01zm285.11,0l0,-72.9c0,-9.63 7.81,-17.43 17.43,-17.43l78.88,0c9.63,0 17.43,7.8 17.43,17.43l0,72.9c0,9.63 -7.8,17.43 -17.43,17.43l-78.88,0c-9.63,0 -17.43,-7.8 -17.43,-17.43zm231.44,0.06c0,9.62 -7.8,17.42 -17.43,17.42l-39.27,0c5.72,-6.21 9.21,-14.49 9.21,-23.59l0,-59.35c0,-19.25 -15.61,-34.86 -34.85,-34.86l-178.8,0c-19.25,0 -34.85,15.61 -34.85,34.86l0,59.35c0,9.1 3.49,17.39 9.2,23.6l-55.02,0c5.71,-6.21 9.2,-14.5 9.2,-23.6l0,-59.35c0,-19.26 -15.6,-34.86 -34.85,-34.86l-178.79,0c-19.26,0 -34.86,15.61 -34.86,34.86l0,59.35c0,9.11 3.49,17.39 9.2,23.6l-47.13,0c-9.62,0 -17.43,-7.81 -17.43,-17.43l0,-72.97c0,-9.62 7.81,-17.42 17.43,-17.42l17.18,0l0,-9.99l-17.18,0c-9.62,0 -17.43,-7.8 -17.43,-17.42l0,-18.19c0,-9.63 7.81,-17.43 17.43,-17.43l601.61,0c9.63,-0.01 17.44,7.8 17.44,17.42l0,136l-0.01,0z" fill="#dbeafe" id="svg_2"/>
  </g>
 </g>
</svg>